<?xml version="1.0" standalone="no"?>
<!DOCTYPE svg PUBLIC "-//W3C//DTD SVG 20010904//EN"
 "http://www.w3.org/TR/2001/REC-SVG-20010904/DTD/svg10.dtd">
<svg version="1.0" xmlns="http://www.w3.org/2000/svg"
 width="700.000000pt" height="700.000000pt" viewBox="0 0 700.000000 700.000000"
 preserveAspectRatio="xMidYMid meet">
<metadata>
Created by potrace 1.11, written by Peter Selinger 2001-2013
</metadata>
<g transform="translate(0.000000,700.000000) scale(0.100000,-0.100000)"
fill="#000000" stroke="none">
<path d="M0 3500 l0 -3500 2683 0 2682 0 323 323 324 324 -1113 6 c-612 4
-1816 7 -2676 7 l-1563 0 0 2840 0 2840 2872 0 2873 0 -390 -390 -390 -390
-2092 0 -2093 0 0 -2062 0 -2061 2088 6 2088 6 299 -299 300 -300 392 392 393
393 0 2682 0 2683 -3500 0 -3500 0 0 -3500z m4240 0 l0 -740 -740 0 -740 0 0
740 0 740 740 0 740 0 0 -740z"/>
<path d="M2840 3500 l0 -660 658 2 657 3 3 658 2 657 -660 0 -660 0 0 -660z"/>
<path d="M740 3499 l0 -2762 2688 7 c2505 7 2688 9 2704 24 17 16 2 33 -267
302 l-285 285 -2110 3 -2110 3 0 2140 0 2139 2108 0 2107 0 310 310 310 310
-2728 0 -2727 0 0 -2761z"/>
</g>
</svg>
